<svg width="24" height="24" viewBox="0 0 24 24" fill="none" xmlns="http://www.w3.org/2000/svg">
<g id="Arrow/Close">
<path id="Close" fill-rule="evenodd" clip-rule="evenodd" d="M6.81304 5.75287C6.52015 5.45998 6.04528 5.45998 5.75238 5.75287C5.45949 6.04577 5.45949 6.52064 5.75238 6.81353L10.8789 11.9401L5.75241 17.0666C5.45952 17.3595 5.45952 17.8343 5.75241 18.1272C6.0453 18.4201 6.52018 18.4201 6.81307 18.1272L11.9396 13.0007L17.0661 18.1272C17.359 18.4201 17.8339 18.4201 18.1268 18.1272C18.4196 17.8343 18.4196 17.3595 18.1268 17.0666L13.0002 11.9401L18.1268 6.81353C18.4197 6.52064 18.4197 6.04577 18.1268 5.75287C17.8339 5.45998 17.359 5.45998 17.0661 5.75287L11.9396 10.8794L6.81304 5.75287Z" fill="#363636"/>
</g>
</svg>
